<svg width="217" height="217" viewBox="0 0 24 24" fill="none" xmlns="http://www.w3.org/2000/svg">
<path fill="#222222" d="M12 22C17.5228 22 22 17.5228 22 12C22 6.47715 17.5228 2 12 2C6.47715 2 2 6.47715 2 12C2 17.5228 6.47715 22 12 22Z" undefined="1"></path>
<path stroke-linejoin="round" stroke-linecap="round" stroke-miterlimit="10" stroke-width="1" stroke="#e45201" d="M9 17H7.75"></path>
<path stroke-linejoin="round" stroke-linecap="round" stroke-miterlimit="10" stroke-width="1" stroke="#e45201" d="M9 7H7.75"></path>
<path stroke-linejoin="round" stroke-linecap="round" stroke-miterlimit="10" stroke-width="1" stroke="#e45201" d="M10.75 7V5"></path>
<path stroke-linejoin="round" stroke-linecap="round" stroke-miterlimit="10" stroke-width="1" stroke="#e45201" d="M13.25 7.01V5"></path>
<path stroke-linejoin="round" stroke-linecap="round" stroke-miterlimit="10" stroke-width="1" stroke="#e45201" d="M10.75 19V17"></path>
<path stroke-linejoin="round" stroke-linecap="round" stroke-miterlimit="10" stroke-width="1" stroke="#e45201" d="M13.25 19.01V17"></path>
<path fill="#222222" d="M13.97 12H9V17H13.97C15.65 17 17 15.91 17 14.56V14.43C17 13.09 15.65 12 13.97 12Z" undefined="1"></path>
<path fill="#222222" d="M12.97 7H9V12H12.97C14.65 12 16 10.91 16 9.56V9.43C16 8.09 14.65 7 12.97 7Z" undefined="1"></path>
<path stroke-linejoin="round" stroke-linecap="round" stroke-miterlimit="10" stroke-width="1" stroke="#e45201" d="M13.97 12H9V17H13.97C15.65 17 17 15.91 17 14.56V14.43C17 13.09 15.65 12 13.97 12Z"></path>
<path stroke-linejoin="round" stroke-linecap="round" stroke-miterlimit="10" stroke-width="1" stroke="#e45201" d="M12.97 7H9V12H12.97C14.65 12 16 10.91 16 9.56V9.43C16 8.09 14.65 7 12.97 7Z"></path>
</svg>